PathFileType	4	(X/Y/Z)	D:\Research_projects\MuscleProsody\BulkSports2Dtrack\RetrackedSports2D\p1_sample60_cam1\p1_sample60_cam1_Sports2D\p1_sample60_cam1_Sports2D_px_person00.trc
DataRate	CameraRate	NumFrames	NumMarkers	Units	OrigDataRate	OrigDataStartFrame	OrigNumFrames
60	60	6	22	m	60	97	780
Frame#	Time	Hip			RHip			RKnee			RAnkle			RBigToe			RSmallToe			RHeel			LHip			LKnee			LAnkle			LBigToe			LSmallToe			LHeel			Neck			Head			Nose			RShoulder			RElbow			RWrist			LShoulder			LElbow			LWrist		
		X1	Y1	Z1	X2	Y2	Z2	X3	Y3	Z3	X4	Y4	Z4	X5	Y5	Z5	X6	Y6	Z6	X7	Y7	Z7	X8	Y8	Z8	X9	Y9	Z9	X10	Y10	Z10	X11	Y11	Z11	X12	Y12	Z12	X13	Y13	Z13	X14	Y14	Z14	X15	Y15	Z15	X16	Y16	Z16	X17	Y17	Z17	X18	Y18	Z18	X19	Y19	Z19	X20	Y20	Z20	X21	Y21	Z21	X22	Y22	Z22
97	1.6166666666666667	317.3800978001851	549.6106418125631	0.0	289.112404711271	559.7966835642977	0.0	281.0533004811604	686.3297314181609	0.0	273.6536545596799	801.9009647682425	0.0	318.3080303301103	845.8531832285443	0.0	295.62832710855383	848.1558089929458	0.0	262.07684733685807	818.2018222947455	0.0	341.49660656440847	560.2376401851958	0.0	329.451710338529	680.2846330785998	0.0	306.7381758029188	782.8809723681737	0.0	341.5801105409553	821.2328935342152	0.0	346.2655945587867	811.8157674909488	0.0	299.920481245891	800.7565077230844	0.0	330.56656908445683	329.31200812382383	0.0	354.35607562222754	232.95355216447828	0.0	370.1369412218803	282.1342765464961	0.0	276.7279575719789	359.96153093871834	0.0	257.7227956254311	457.0010163910508	0.0	349.308148002391	468.60482932931046	0.0	362.3456153082363	369.4555099119718	0.0	365.1040961790706	465.9519031899105	0.0	386.92743013368084	539.2024880576721	0.0
98	1.6333333333333333	317.1823763487813	549.2442583211667	0.0	288.9906380389317	559.4248768718205	0.0	280.97013041767116	686.392461232491	0.0	273.59167504346277	802.1166166921379	0.0	318.3800635915721	846.0132283889894	0.0	295.6882414142868	848.2837044945787	0.0	261.68435991955243	818.5060227926008	0.0	341.1930075966785	559.8657955301335	0.0	329.39871252912843	680.2194612365226	0.0	306.7007815679739	783.0448122390567	0.0	341.8236915385187	821.2640887502059	0.0	346.3450674073974	811.7638496700129	0.0	299.629658577336	801.0564666671457	0.0	330.5757651486033	329.15801805475803	0.0	354.4503122149188	232.9607226042811	0.0	370.17021411031703	282.230076108587	0.0	277.0571139171844	359.2808151610131	0.0	255.48185296322552	455.3244274275025	0.0	348.96090679132226	468.66455420594593	0.0	362.2227327796223	369.37815452075125	0.0	365.2093492870113	465.5136758447746	0.0	390.52124301820925	536.2576420065595	0.0
99	1.65	316.90448017612056	548.8550120153291	0.0	288.83657459879805	558.9948334926711	0.0	280.8361234846928	686.4398822093092	0.0	273.4917011508917	802.2998975979473	0.0	318.43325479715054	846.182754955549	0.0	295.6833281616013	848.4057701036138	0.0	261.21179900589647	818.7866572150094	0.0	340.8178952431562	559.4612910483592	0.0	329.2634355326563	680.1872454398057	0.0	306.66158841842594	783.2408765956003	0.0	342.05981808380454	821.3310252216795	0.0	346.4213183593288	811.7799731481668	0.0	299.2776175033903	801.3874540645246	0.0	330.62781400344045	328.98227369439456	0.0	354.6427563394226	232.97837034035993	0.0	370.28375721694863	282.35551916147324	0.0	277.4159447889316	358.5260796478406	0.0	253.1530943914321	453.34696600649164	0.0	348.51274267134795	467.2681886402617	0.0	362.09234663227596	369.2666930250206	0.0	365.42749779953016	464.77961331417816	0.0	394.9044217950128	532.2681901771152	0.0
100	1.6666666666666667	316.5484381828336	548.4589221803287	0.0	288.6566888729928	558.5251030965479	0.0	280.6439378344947	686.480705057966	0.0	273.3541554275593	802.4401538865409	0.0	318.45843793986427	846.3654858264129	0.0	295.59088096339235	848.518263207682	0.0	260.6953128468567	819.0211615690891	0.0	340.3790040685791	559.0355255086217	0.0	329.0403781349407	680.1981127134243	0.0	306.6191408197565	783.4536507730658	0.0	342.27452058001825	821.4405225838457	0.0	346.48991501895216	811.8740373421331	0.0	298.8736681616437	801.7211102677484	0.0	330.7124475948194	328.79394526464455	0.0	354.91285959815417	233.00358181365368	0.0	370.4724732184559	282.50211911849783	0.0	277.77947978270475	357.7312349689516	0.0	250.7603503331924	451.1328886110489	0.0	347.9055821419592	464.6134789644266	0.0	361.9674545286442	369.12771058602164	0.0	365.85129883891494	463.73030181724505	0.0	400.0628949734732	527.1511747767129	0.0
101	1.6833333333333333	316.12725859054166	548.0628168357307	0.0	288.4584414304953	558.0351000672194	0.0	280.3865775143908	686.5236949505321	0.0	273.18169657866014	802.5310382008685	0.0	318.4430091077142	846.5682427476478	0.0	295.39244285895126	848.6218086772228	0.0	260.1791072762462	819.189137906431	0.0	339.8958482906623	558.5971560378523	0.0	328.73325212023514	680.2554235150202	0.0	306.57017730864567	783.6584121756772	0.0	342.4469343973778	821.5955088196706	0.0	346.5391862594698	812.0478135783064	0.0	298.4316051858152	802.0199310409809	0.0	330.80955102055157	328.6024161610063	0.0	355.23447894251376	233.03704115849786	0.0	370.72748493662004	282.6628464321605	0.0	278.1135805861848	356.93374736285847	0.0	248.31659573799854	448.76296750357005	0.0	347.0479759631638	460.9352189479318	0.0	361.85986107862135	368.9644925183545	0.0	366.59087706104	462.33766441838327	0.0	405.94411479657856	520.87637071512	0.0
102	1.7	315.6629074366551	547.6675626085761	0.0	288.24822427436675	557.5440909092728	0.0	280.0615687799134	686.5763865925219	0.0	272.98172646692404	802.5697829123708	0.0	318.3723133476227	846.7966012425412	0.0	295.0791406772676	848.7200948342123	0.0	259.7123386505101	819.275180261858	0.0	339.3992602301338	558.1542371990224	0.0	328.352650972392	680.3549379713091	0.0	306.51182697913225	783.8284924769498	0.0	342.5625149138933	821.7953804632662	0.0	346.56006609968904	812.2956424569788	0.0	297.96615929301197	802.2477746519401	0.0	330.89447785566233	328.417593115319	0.0	355.58124617910386	233.08410611989652	0.0	371.0254771620642	282.8346766682901	0.0	278.37963822805335	356.1697722560725	0.0	245.83298813358982	446.3301829825882	0.0	345.820368162537	456.49487241236164	0.0	361.7833134593251	368.77734283663773	0.0	367.75071677298484	460.5681862890908	0.0	412.46344966160837	513.4690426620906	0.0
